<svg width="32" height="32" viewBox="0 0 32 32" fill="none" xmlns="http://www.w3.org/2000/svg">
<path d="M14.0333 22.0667L23.4667 12.6334L21.9333 11.1334L14.0333 19.0334L10.0333 15.0334L8.53333 16.5334L14.0333 22.0667ZM16 29.3334C14.1778 29.3334 12.4556 28.9834 10.8333 28.2834C9.21111 27.5834 7.79444 26.6278 6.58333 25.4167C5.37222 24.2056 4.41667 22.7889 3.71667 21.1667C3.01667 19.5445 2.66667 17.8222 2.66667 16C2.66667 14.1556 3.01667 12.4222 3.71667 10.8C4.41667 9.1778 5.37222 7.76669 6.58333 6.56669C7.79444 5.36669 9.21111 4.41669 10.8333 3.71669C12.4556 3.01669 14.1778 2.66669 16 2.66669C17.8444 2.66669 19.5778 3.01669 21.2 3.71669C22.8222 4.41669 24.2333 5.36669 25.4333 6.56669C26.6333 7.76669 27.5833 9.1778 28.2833 10.8C28.9833 12.4222 29.3333 14.1556 29.3333 16C29.3333 17.8222 28.9833 19.5445 28.2833 21.1667C27.5833 22.7889 26.6333 24.2056 25.4333 25.4167C24.2333 26.6278 22.8222 27.5834 21.2 28.2834C19.5778 28.9834 17.8444 29.3334 16 29.3334Z" fill="#FFAB05"/>
</svg>
