<svg width="32" height="32" viewBox="0 0 32 32" fill="none" xmlns="http://www.w3.org/2000/svg">
<path d="M4.66669 26.6666C4.13335 26.6666 3.66669 26.4666 3.26669 26.0666C2.86669 25.6666 2.66669 25.2 2.66669 24.6666V7.33331C2.66669 6.79998 2.86669 6.33331 3.26669 5.93331C3.66669 5.53331 4.13335 5.33331 4.66669 5.33331H27.3334C27.8667 5.33331 28.3334 5.53331 28.7334 5.93331C29.1334 6.33331 29.3334 6.79998 29.3334 7.33331V24.6666C29.3334 25.2 29.1334 25.6666 28.7334 26.0666C28.3334 26.4666 27.8667 26.6666 27.3334 26.6666H4.66669ZM16 16.6L4.66669 9.16665V24.6666H27.3334V9.16665L16 16.6ZM16 14.6L27.2 7.33331H4.83335L16 14.6ZM4.66669 9.16665V7.33331V24.6666V9.16665Z" fill="white"/>
</svg>
